<svg xmlns="http://www.w3.org/2000/svg" data-name="Background 18" viewBox="0 0 975.61 1031.67"><path fill="#f8f8ff" d="M420.36 108.52C310.38 219 256.15 142.23 186.6 250.15c-45 69.78-71.34 165.07-42.23 292C223.45 886.84 217.3 851.68 323.19 922s76.56 185.85 220.72 135.62S866 1122.93 919.39 935.4s-85-353.67 15.82-457.29S988.88 53.93 716 43.88C564.2 38.29 509.46 19 420.36 108.52Z" transform="translate(-70.75 -38.24)"/><path fill="#f8f8ff" d="M398.32 234c-125 75.51-186.63 23-265.68 96.82-51.1 47.7-81.08 112.85-48 199.6C174.53 766.07 167.54 742 287.88 790.1s87 127.06 250.86 92.72 366.09 44.64 426.76-83.56-96.62-241.78 18-312.62 61-290-249.11-296.86C561.8 186 499.59 172.8 398.32 234Z" transform="translate(-70.75 -38.24)"/><path fill="#e1e6fb" d="M255.29 283.26v327h494l.5-340.5-494.5-.5v14z"/><path fill="#eaedfb" d="M218.29 312.26v327h494l.5-340.5-494.5-.5v14z"/><rect width="15" height="15" x="232.79" y="324.76" fill="#bac5f4" rx="7.5"/><rect width="15" height="15" x="255.79" y="324.76" fill="#bac5f4" rx="7.5"/><rect width="15" height="15" x="278.79" y="324.76" fill="#bac5f4" rx="7.5"/><g opacity=".5"><g data-name="table 1"><path fill="#fff" d="M244.79 373.76h2v102h-2zM253.79 373.76h2v102h-2zM261.79 373.76h2v102h-2zM270.79 373.76h2v102h-2zM278.79 373.76h2v102h-2zM287.79 373.76h2v102h-2zM295.79 373.76h2v102h-2zM303.79 373.76h2v102h-2zM311.79 373.76h2v102h-2zM320.79 373.76h2v102h-2zM328.79 373.76h2v102h-2zM337.79 373.76h2v102h-2zM345.79 373.76h2v102h-2z"/><path fill="#fff" d="M244.79 373.76h103v2h-103zM244.79 383.76h103v2h-103zM244.79 393.76h103v2h-103zM244.79 403.76h103v2h-103zM244.79 413.76h103v2h-103zM244.79 423.76h103v2h-103zM244.79 433.76h103v2h-103zM244.79 443.76h103v2h-103zM244.79 453.76h103v2h-103zM244.79 463.76h103v2h-103zM244.79 473.76h103v2h-103z"/></g><g data-name="table 2"><path fill="#fff" d="M370.79 501.76h2v102h-2zM379.79 501.76h2v102h-2zM387.79 501.76h2v102h-2zM396.79 501.76h2v102h-2zM404.79 501.76h2v102h-2zM413.79 501.76h2v102h-2zM421.79 501.76h2v102h-2zM429.79 501.76h2v102h-2zM437.79 501.76h2v102h-2zM446.79 501.76h2v102h-2zM454.79 501.76h2v102h-2zM463.79 501.76h2v102h-2zM471.79 501.76h2v102h-2z"/><path fill="#fff" d="M370.79 501.76h103v2h-103zM370.79 511.76h103v2h-103zM370.79 521.76h103v2h-103zM370.79 531.76h103v2h-103zM370.79 541.76h103v2h-103zM370.79 551.76h103v2h-103zM370.79 561.76h103v2h-103zM370.79 571.76h103v2h-103zM370.79 581.76h103v2h-103zM370.79 591.76h103v2h-103zM370.79 601.76h103v2h-103z"/></g><g data-name="table 3"><path fill="#fff" d="M483.79 384.76h2v102h-2zM492.79 384.76h2v102h-2zM500.79 384.76h2v102h-2zM509.79 384.76h2v102h-2zM517.79 384.76h2v102h-2zM526.79 384.76h2v102h-2zM534.79 384.76h2v102h-2zM542.79 384.76h2v102h-2zM550.79 384.76h2v102h-2zM559.79 384.76h2v102h-2zM567.79 384.76h2v102h-2zM576.79 384.76h2v102h-2zM584.79 384.76h2v102h-2z"/><path fill="#fff" d="M483.79 384.76h103v2h-103zM483.79 394.76h103v2h-103zM483.79 404.76h103v2h-103zM483.79 414.76h103v2h-103zM483.79 424.76h103v2h-103zM483.79 434.76h103v2h-103zM483.79 444.76h103v2h-103zM483.79 454.76h103v2h-103zM483.79 464.76h103v2h-103zM483.79 474.76h103v2h-103zM483.79 484.76h103v2h-103z"/></g></g><path fill="#bac5f4" d="M293.79 405.76h147v102h-147z"/><path fill="#e1e6fb" d="M308.79 418.76h147v102h-147z"/><path fill="#fff" d="M338.79 432.76h84v2h-84zM338.79 437.76h69v2h-69zM338.79 441.76h91v2h-91zM338.79 454.76h40v2h-40zM338.79 459.76h61v2h-61zM338.79 463.76h57v2h-57zM338.79 477.76h40v2h-40zM338.79 482.76h61v2h-61zM338.79 486.76h57v2h-57z"/><circle cx="326.29" cy="438.26" r="6.5" fill="#fff"/><circle cx="326.29" cy="459.26" r="6.5" fill="#fff"/><circle cx="327.29" cy="483.26" r="6.5" fill="#fff"/><path fill="#fff" d="M608.79 418.76h73v2h-73zM608.79 429.76h73v2h-73zM608.79 440.76h73v2h-73zM608.79 451.76h73v2h-73zM608.79 462.76h73v2h-73zM608.79 473.76h73v2h-73zM608.79 484.76h73v2h-73zM608.79 495.76h73v2h-73zM608.79 506.76h73v2h-73zM229.79 347.76h458v2h-458z"/><circle cx="645.29" cy="384.26" r="22.5" fill="#fff"/><g><path fill="#bac5f4" d="M746.54 330v-20s2-5-7-9-25-20-24-47 26-51 54-49 48 24 49 54-26 42-26 42-5 1-5 6v23Z" transform="translate(-70.75 -38.24)"/><path fill="#bac5f4" d="M709.54 214h2v20h-2z" transform="rotate(-57.46 640.303 269.403)"/><path fill="#bac5f4" d="M748.54 184h2v20h-2z" transform="rotate(-12.02 532.803 510.925)"/><path fill="#bac5f4" d="M798.54 190h2v20h-2z" transform="rotate(32.18 830.418 58.227)"/><path fill="#bac5f4" d="M828.54 229h2v20h-2z" transform="rotate(71.97 820.455 171.12)"/><path fill="#bac5f4" d="M822.54 279h2v20h-2z" transform="rotate(121.94 798.778 250.286)"/><path fill="#bac5f4" d="M732.54 303h2v20h-2z" transform="rotate(-147.79 692.643 304.092)"/><path fill="#bac5f4" d="M703.54 265h2v20h-2z" transform="rotate(-103.13 653.956 283.973)"/><rect width="49" height="7" x="671.79" y="291.76" fill="#bac5f4" rx="3.5"/><rect width="47" height="7" x="672.79" y="304.76" fill="#bac5f4" rx="3.5"/><rect width="47" height="6" x="672.79" y="298.76" fill="#fff" rx="3"/><path fill="#fff" d="M748.54 350h36.74s-.74 12-17.74 12-16-7-19-12Z" transform="translate(-70.75 -38.24)"/></g><g><path fill="#e1e6fb" d="M781.07 475h117.57a3.69 3.69 0 0 1 3.67 4.09l-8.19 74.62a3.7 3.7 0 0 1-3.67 3.29H772.88a3.69 3.69 0 0 1-3.67-4.09l8.19-74.62a3.69 3.69 0 0 1 3.67-3.29Z" transform="translate(-70.75 -38.24)"/><path fill="#fff" d="M773.07 475h117.57a3.69 3.69 0 0 1 3.67 4.09l-8.19 74.62a3.7 3.7 0 0 1-3.67 3.29H764.88a3.69 3.69 0 0 1-3.67-4.09l8.19-74.62a3.69 3.69 0 0 1 3.67-3.29Z" transform="translate(-70.75 -38.24)"/><path fill="#bac5f4" d="m700.79 437.09 48.22 44.67 72.42-44.67H700.79z"/></g><g><path fill="#bac5f4" d="M688.49 779.48 546.22 779c-3.72 0-6.73-.18-6.72-3.9l.07-19c0-3.68 3-3.14 6.66-3.18l141.35-1.42c1.77.1 4.74-1.13 9.63 1 6.58 2.82 11.3 20.11-2.72 26.06a26.39 26.39 0 0 1-6 .92Z" transform="translate(-70.75 -38.24)"/><path fill="#fff" d="m541.84 775.08 38.07.14a2.35 2.35 0 0 0 2.35-2.34v-15.06a2.35 2.35 0 0 0-2.34-2.35l-38.06-.13a7.64 7.64 0 0 0-2.34.11L539.5 775a17.14 17.14 0 0 0 2.34.08Z" transform="translate(-70.75 -38.24)"/><path fill="#eaedfb" d="M554.5 725.1h142.26c3.72 0 6.74.16 6.74 3.88v19c0 3.68-3 3.15-6.65 3.2L555.5 753.1c-1.76-.08-4.74-.81-9.32-2.37-6.78-2.3-11.68-18.63 2.32-24.63a26.41 26.41 0 0 1 6-1Z" transform="translate(-70.75 -38.24)"/><path fill="#b0c0f4" d="M701.16 729H663.1a2.35 2.35 0 0 0-2.35 2.34v15.07a2.35 2.35 0 0 0 2.35 2.34h38.06a7.82 7.82 0 0 0 2.34-.12v-19.58a15.41 15.41 0 0 0-2.34-.05Z" transform="translate(-70.75 -38.24)"/><path fill="#bac5f4" d="M542.46 701.48h142.26c3.73 0 6.74.15 6.74 3.87v19c0 3.69-3 3.15-6.65 3.2l-141.35 1.92c-1.76-.09-4.74-.82-9.32-2.38-6.78-2.29-11.68-18.62 2.32-24.62a25.87 25.87 0 0 1 6-.99Z" transform="translate(-70.75 -38.24)"/><path fill="#fff" d="M689.12 705.35h-38.06a2.34 2.34 0 0 0-2.34 2.35v15.06a2.33 2.33 0 0 0 2.34 2.34h38.06a8.47 8.47 0 0 0 2.34-.11v-19.57a17.14 17.14 0 0 0-2.34-.07Z" transform="translate(-70.75 -38.24)"/></g><g><circle cx="209.92" cy="627.95" r="67.13" fill="none" stroke="#e1e6fb" stroke-dasharray="11.72 11.72" stroke-miterlimit="10" stroke-width="4"/><rect width="23.71" height="7.44" x="198.06" y="690.1" fill="#e1e6fb" rx="3.72"/><circle cx="210.27" cy="627.6" r="59.5" fill="#e1e6fb"/><path fill="#e1e6fb" d="M207.85 695.08h4.82v286.16h-4.82z"/><circle cx="312.97" cy="821.8" r="51.56" fill="none" stroke="#e1e6fb" stroke-dasharray="11.57 11.57" stroke-miterlimit="10" stroke-width="4" transform="rotate(-45 231.429 888.09)"/><rect width="18.21" height="5.71" x="233.11" y="831.3" fill="#e1e6fb" rx="2.7"/><rect width="54.52" height="5.71" x="198.74" y="981.24" fill="#e1e6fb" rx="2.7"/><rect width="80.85" height="5.71" x="185.07" y="986.24" fill="#e1e6fb" rx="2.7"/><circle cx="242.49" cy="783.29" r="45.7" fill="#e1e6fb"/><path fill="#e1e6fb" d="M239.92 695.08h4.82v286.16h-4.82z"/></g><g><path fill="#bac5f4" d="M658.82 911.79a10.6 10.6 0 0 0 2.3 15.79c32.82 21.23 143.16 83.76 234 31.46 108-62.2 153.77-227.19 151.18-242.74s-56.15-18.57-146-15.33 11.2 160.46-91.6 175.14-76-27.64-108.85-2.59a270.45 270.45 0 0 0-41.03 38.27Z" transform="translate(-70.75 -38.24)"/><path fill="#b0c0f4" d="M718.49 865.83S854.08 901.6 858 823.35c5.43-109.08 28.06-100.08 26.36-30.49s-.65 75-33 88.75c-27.87 11.85-51.24 13.94-88.72 6.4-30.64-6.16-44.15-22.18-44.15-22.18Z" transform="translate(-70.75 -38.24)"/><path fill="#bac5f4" d="M679.36 933.75h7.31v53.56h-7.31z" transform="rotate(37.63 703.803 837.736)"/><circle cx="593.25" cy="947.78" r="10.22" fill="#b0c0f4"/><path fill="#bac5f4" d="M752.09 962.18h7.31v53.56h-7.31z" transform="rotate(30 791.732 837.816)"/><circle cx="669.96" cy="978.68" r="10.22" fill="#b0c0f4"/><path fill="#bac5f4" d="M908 948.91h7.31v65.13H908z" transform="rotate(-39.75 823.254 1060.136)"/><circle cx="864.54" cy="972.93" r="10.22" fill="#b0c0f4"/><path fill="#bac5f4" d="M830.29 925.41h7.31v65.13h-7.31z" transform="rotate(-39.75 745.547 1036.642)"/><circle cx="786.83" cy="949.44" r="10.22" fill="#b0c0f4"/></g></svg>